#N canvas 494 307 450 300 12;
#X floatatom 84 205 5 0 0 0 - - - 0;
#X obj 149 75 netreceive -u -b -f 2222;
#X obj 311 110 print;
#X obj 148 118 oscparse -f;
#X obj 84 181 route rand;
#X obj 147 145 list trim;
#X obj 84 229 print random;
#X floatatom 183 204 5 0 0 0 - - - 0;
#X obj 183 180 route buttonPress;
#X obj 183 256 print button;
#X obj 184 231 change;
#X connect 0 0 6 0;
#X connect 1 0 3 0;
#X connect 3 0 5 0;
#X connect 4 0 0 0;
#X connect 5 0 4 0;
#X connect 5 0 8 0;
#X connect 7 0 10 0;
#X connect 8 0 7 0;
#X connect 10 0 9 0;
