#N canvas 494 307 450 300 12;
#X obj 41 34 netreceive -u -b -f 2222;
#X obj 40 77 oscparse -f;
#X obj 39 104 list trim;
#X floatatom 38 163 5 0 0 0 - - - 0;
#X obj 38 139 route buttonPress1;
#X obj 37 191 change;
#X obj 38 215 print button1;
#X floatatom 179 164 5 0 0 0 - - - 0;
#X obj 178 192 change;
#X obj 179 140 route buttonPress2;
#X obj 179 216 print button2;
#X connect 0 0 1 0;
#X connect 1 0 2 0;
#X connect 2 0 4 0;
#X connect 2 0 9 0;
#X connect 3 0 5 0;
#X connect 4 0 3 0;
#X connect 5 0 6 0;
#X connect 7 0 8 0;
#X connect 8 0 10 0;
#X connect 9 0 7 0;
