#N canvas 387 148 704 338 12;
#X obj 41 34 netreceive -u -b -f 2222;
#X obj 40 77 oscparse -f;
#X obj 39 104 list trim;
#X floatatom 38 163 5 0 0 0 - - - 0;
#X obj 38 139 route buttonPress1;
#X obj 37 191 change;
#X obj 38 215 print button1;
#X floatatom 179 164 5 0 0 0 - - - 0;
#X obj 178 192 change;
#X obj 179 140 route buttonPress2;
#X obj 179 216 print button2;
#X text 234 35 make sure this address is the same as in the python script;
#X floatatom 323 164 5 0 0 0 - - - 0;
#X obj 322 192 change;
#X floatatom 462 166 5 0 0 0 - - - 0;
#X obj 461 194 change;
#X obj 323 140 route buttonPress3;
#X obj 462 142 route buttonPress4;
#X obj 323 216 print button3;
#X obj 462 217 print button4;
#X connect 0 0 1 0;
#X connect 1 0 2 0;
#X connect 2 0 4 0;
#X connect 2 0 9 0;
#X connect 2 0 16 0;
#X connect 2 0 17 0;
#X connect 3 0 5 0;
#X connect 4 0 3 0;
#X connect 5 0 6 0;
#X connect 7 0 8 0;
#X connect 8 0 10 0;
#X connect 9 0 7 0;
#X connect 12 0 13 0;
#X connect 13 0 18 0;
#X connect 14 0 15 0;
#X connect 15 0 19 0;
#X connect 16 0 12 0;
#X connect 17 0 14 0;
