#N canvas 494 307 450 300 12;
#X obj 41 34 netreceive -u -b -f 2222;
#X obj 40 77 oscparse -f;
#X obj 39 104 list trim;
#X floatatom 38 163 5 0 0 0 - - - 0;
#X obj 38 215 print button;
#X obj 39 190 change;
#X obj 38 139 route buttonPress1;
#X connect 0 0 1 0;
#X connect 1 0 2 0;
#X connect 2 0 6 0;
#X connect 3 0 5 0;
#X connect 5 0 4 0;
#X connect 6 0 3 0;
